<svg width="112" height="24" viewBox="0 0 112 24" fill="none" xmlns="http://www.w3.org/2000/svg">
<path d="M10.7891 11.0273H4.03906V18H0.523438V0.9375H11.6328V3.78516H4.03906V8.19141H10.7891V11.0273ZM21.0547 14.4844H14.8906L13.7188 18H9.98047L16.332 0.9375H19.5898L25.9766 18H22.2383L21.0547 14.4844ZM15.8398 11.6367H20.1055L17.9609 5.25L15.8398 11.6367ZM32.9141 11.1562L31.0859 13.125V18H27.5703V0.9375H31.0859V8.67188L32.6328 6.55078L36.9805 0.9375H41.3047L35.2461 8.51953L41.4805 18H37.2969L32.9141 11.1562ZM53.0703 10.6055H46.3203V15.1758H54.2422V18H42.8047V0.9375H54.2188V3.78516H46.3203V7.85156H53.0703V10.6055ZM66.8773 4.152C66.3973 3.624 65.7573 3.192 64.9573 2.856C64.1573 2.504 63.2453 2.328 62.2213 2.328C60.7173 2.328 59.6213 2.616 58.9333 3.192C58.2453 3.752 57.9013 4.52 57.9013 5.496C57.9013 6.168 58.0693 6.696 58.4053 7.08C58.7413 7.464 59.2533 7.784 59.9413 8.04C60.6453 8.28 61.5413 8.52 62.6293 8.76C63.8453 9.016 64.8933 9.32 65.7733 9.672C66.6533 10.024 67.3333 10.504 67.8133 11.112C68.2933 11.704 68.5333 12.512 68.5333 13.536C68.5333 14.576 68.2693 15.44 67.7413 16.128C67.2133 16.816 66.4853 17.328 65.5573 17.664C64.6293 17.984 63.5733 18.144 62.3893 18.144C59.7333 18.144 57.4533 17.32 55.5493 15.672L56.3893 14.304C56.9973 14.944 57.8293 15.496 58.8853 15.96C59.9573 16.424 61.1413 16.656 62.4373 16.656C63.7813 16.656 64.8373 16.408 65.6053 15.912C66.3733 15.416 66.7573 14.68 66.7573 13.704C66.7573 13 66.5653 12.44 66.1813 12.024C65.7973 11.592 65.2213 11.24 64.4533 10.968C63.6853 10.696 62.7413 10.432 61.6213 10.176C60.4373 9.904 59.4373 9.6 58.6213 9.264C57.8213 8.928 57.2133 8.488 56.7973 7.944C56.3813 7.4 56.1733 6.664 56.1733 5.736C56.1733 4.68 56.4293 3.792 56.9413 3.072C57.4693 2.336 58.1893 1.784 59.1013 1.416C60.0133 1.032 61.0613 0.839999 62.2453 0.839999C63.3653 0.839999 64.3733 1.016 65.2693 1.368C66.1653 1.704 66.9733 2.184 67.6933 2.808L66.8773 4.152ZM81.6714 18H80.0394V11.016C80.0394 8.184 79.0794 6.768 77.1594 6.768C76.5354 6.768 75.9274 6.928 75.3354 7.248C74.7434 7.552 74.2154 7.976 73.7514 8.52C73.3034 9.048 72.9834 9.656 72.7914 10.344V18H71.1594V0.48H72.7914V8.328C73.2874 7.4 73.9754 6.664 74.8554 6.12C75.7514 5.56 76.7034 5.28 77.7114 5.28C78.6714 5.28 79.4394 5.512 80.0154 5.976C80.5914 6.424 81.0074 7.056 81.2634 7.872C81.5354 8.672 81.6714 9.608 81.6714 10.68V18ZM90.4796 18.24C89.2796 18.24 88.2076 17.944 87.2636 17.352C86.3356 16.76 85.6076 15.976 85.0796 15C84.5516 14.008 84.2876 12.936 84.2876 11.784C84.2876 10.616 84.5516 9.544 85.0796 8.568C85.6236 7.576 86.3596 6.784 87.2876 6.192C88.2316 5.584 89.2956 5.28 90.4796 5.28C91.6796 5.28 92.7436 5.584 93.6716 6.192C94.6156 6.784 95.3516 7.576 95.8796 8.568C96.4236 9.544 96.6956 10.616 96.6956 11.784C96.6956 12.936 96.4316 14.008 95.9036 15C95.3756 15.976 94.6396 16.76 93.6956 17.352C92.7676 17.944 91.6956 18.24 90.4796 18.24ZM85.9436 11.808C85.9436 12.736 86.1436 13.584 86.5436 14.352C86.9596 15.104 87.5116 15.704 88.1996 16.152C88.8876 16.584 89.6476 16.8 90.4796 16.8C91.3116 16.8 92.0716 16.576 92.7596 16.128C93.4476 15.68 93.9996 15.072 94.4156 14.304C94.8316 13.536 95.0396 12.688 95.0396 11.76C95.0396 10.832 94.8316 9.984 94.4156 9.216C93.9996 8.448 93.4476 7.84 92.7596 7.392C92.0716 6.944 91.3116 6.72 90.4796 6.72C89.6636 6.72 88.9116 6.952 88.2236 7.416C87.5356 7.864 86.9836 8.472 86.5676 9.24C86.1516 10.008 85.9436 10.864 85.9436 11.808ZM105.809 18.24C104.769 18.24 103.833 17.968 103.001 17.424C102.185 16.88 101.537 16.208 101.057 15.408V23.112H99.425V5.496H100.889V7.92C101.385 7.136 102.041 6.504 102.857 6.024C103.689 5.528 104.585 5.28 105.545 5.28C106.409 5.28 107.201 5.464 107.921 5.832C108.641 6.184 109.265 6.664 109.793 7.272C110.337 7.88 110.753 8.576 111.041 9.36C111.329 10.128 111.473 10.928 111.473 11.76C111.473 12.928 111.233 14.008 110.753 15C110.289 15.976 109.625 16.76 108.761 17.352C107.913 17.944 106.929 18.24 105.809 18.24ZM105.353 16.8C106.265 16.8 107.049 16.56 107.705 16.08C108.377 15.584 108.897 14.952 109.265 14.184C109.633 13.416 109.817 12.608 109.817 11.76C109.817 10.864 109.609 10.032 109.193 9.264C108.777 8.496 108.217 7.88 107.513 7.416C106.825 6.952 106.041 6.72 105.161 6.72C104.617 6.72 104.041 6.864 103.433 7.152C102.841 7.424 102.313 7.8 101.849 8.28C101.401 8.744 101.137 9.256 101.057 9.816V13.656C101.425 14.536 102.001 15.28 102.785 15.888C103.569 16.496 104.425 16.8 105.353 16.8Z" fill="#46237E"/>
</svg>
